<?xml version="1.0" encoding="UTF-8" standalone="no"?>
<!DOCTYPE svg PUBLIC "-//W3C//DTD SVG 1.1//EN" "http://www.w3.org/Graphics/SVG/1.1/DTD/svg11.dtd">
<svg width="100%" height="100%" viewBox="0 0 2084 2084" version="1.1" xmlns="http://www.w3.org/2000/svg" xmlns:xlink="http://www.w3.org/1999/xlink" xml:space="preserve" xmlns:serif="http://www.serif.com/" style="fill-rule:evenodd;clip-rule:evenodd;stroke-linejoin:round;stroke-miterlimit:2;">
    <g transform="matrix(4.16667,0,0,4.16667,0,0)">
        <rect x="0" y="0" width="500" height="500" style="fill:rgb(14,149,158);fill-rule:nonzero;"/>
        <path d="M113.672,390.865C103.584,383.733 94.287,375.569 86.189,366.211C45.492,319.183 51.469,252.91 85.785,204.141C126.115,146.827 189.573,97.691 259.005,73.396C284.458,64.49 313.186,61.214 338.922,69.402C361.046,76.44 379.391,91.447 393.168,108.874C426.056,150.478 439.949,214.245 443.065,266.199C445.507,306.898 437.103,349.705 411.679,381.578C354.082,453.788 237.591,445.811 160.384,415.509C143.99,409.074 128.029,401.015 113.672,390.865Z" style="fill:rgb(187,183,219);fill-rule:nonzero;"/>
        <path d="M85.517,204.523L39.691,204.523C39.92,201.846 41.383,198.608 43.642,197.154C45.067,196.236 46.763,195.761 48.456,195.761C49.448,195.761 50.439,195.924 51.375,196.257C50.309,191.423 51.428,186.233 53.982,181.992C56.535,177.75 61.041,174.649 65.966,174.141C66.425,174.093 66.888,174.07 67.35,174.07C71.84,174.07 76.344,176.271 78.804,180.024C79.198,177.701 81.236,175.893 83.557,175.493C83.857,175.441 84.16,175.416 84.462,175.416C86.505,175.416 88.539,176.558 89.54,178.35C91.18,174.79 94.513,172.285 98.308,171.302C99.242,171.059 100.208,170.94 101.175,170.94C104.135,170.94 107.098,172.058 109.154,174.181C109.236,174.266 109.316,174.352 109.395,174.438C100.859,184.018 92.956,193.951 85.785,204.141C85.695,204.269 85.607,204.395 85.517,204.523Z" style="fill:rgb(235,234,233);fill-rule:nonzero;"/>
        <path d="M128.792,204.523L85.517,204.523C85.607,204.395 85.695,204.269 85.785,204.141C92.956,193.951 100.859,184.018 109.395,174.438C112.565,177.936 113.033,183.101 113.323,187.844C114.127,186.784 115.458,186.341 116.82,186.341C117.496,186.341 118.179,186.451 118.809,186.648C120.707,187.242 122.196,188.833 122.962,190.67C123.728,192.506 123.832,194.564 123.584,196.538C125.146,196.66 126.788,197.635 127.696,198.911C128.604,200.188 129.188,203.008 128.792,204.523Z" style="fill:rgb(235,234,233);fill-rule:nonzero;"/>
        <path d="M404.569,107.812L392.32,107.812C388.338,102.87 383.984,98.133 379.279,93.732C379.729,93.551 380.215,93.452 380.674,93.452C380.85,93.452 381.022,93.466 381.186,93.496C382.504,93.736 383.566,94.976 383.6,96.314C384.373,93.619 386.842,91.226 389.456,90.211C390.498,89.807 391.615,89.608 392.732,89.608C394.416,89.608 396.102,90.06 397.538,90.941C399.938,92.415 401.546,94.95 402.396,97.635C403.247,100.319 404.521,104.996 404.569,107.812ZM375.938,90.716C374.925,89.835 373.895,88.967 372.852,88.118C374.065,88.719 375.127,89.625 375.938,90.716Z" style="fill:rgb(225,222,239);fill-rule:nonzero;"/>
        <path d="M392.32,107.812L328.312,107.812C327.477,99.676 332.177,90.995 339.552,87.456C342.187,86.192 345.095,85.582 348.01,85.582C353.256,85.582 358.526,87.556 362.271,91.248C363.674,88.684 366.354,87.284 369.189,87.284C369.845,87.284 370.51,87.359 371.17,87.512C371.754,87.648 372.318,87.853 372.852,88.118C373.895,88.967 374.925,89.835 375.938,90.716C376.913,92.029 377.524,93.609 377.596,95.245C377.872,94.567 378.527,94.035 379.279,93.732C383.984,98.133 388.338,102.87 392.32,107.812Z" style="fill:rgb(235,234,233);fill-rule:nonzero;"/>
        <path d="M222.919,376.495L151.791,376.495C151.012,368.906 155.396,360.809 162.275,357.508C164.732,356.329 167.445,355.76 170.164,355.76C175.057,355.76 179.972,357.602 183.465,361.044C184.773,358.653 187.273,357.347 189.917,357.347C190.53,357.347 191.15,357.417 191.765,357.56C195.036,358.32 197.612,361.419 197.76,364.774C198.171,363.761 199.485,363.1 200.63,363.1C200.794,363.1 200.955,363.114 201.109,363.142C202.336,363.366 203.327,364.523 203.36,365.77C204.081,363.257 206.384,361.025 208.821,360.078C209.793,359.701 210.835,359.515 211.878,359.515C213.448,359.515 215.021,359.937 216.36,360.759C218.599,362.133 220.098,364.497 220.891,367.002C221.685,369.506 222.873,373.868 222.919,376.495Z" style="fill:rgb(235,234,233);fill-rule:nonzero;"/>
        <path d="M335.777,147.297L295.944,147.297C295.885,144.249 298.062,141.238 300.861,140.031C301.801,139.626 302.821,139.43 303.842,139.43C305.862,139.43 307.89,140.194 309.335,141.612C309.365,140.312 310.254,139.227 311.49,138.821C311.795,138.721 312.114,138.673 312.434,138.673C313.409,138.673 314.39,139.119 314.989,139.894C315.95,136.791 317.9,133.976 320.706,132.34C322.267,131.429 324.088,130.934 325.891,130.934C327.328,130.934 328.754,131.248 330.03,131.918C332.553,133.243 334.274,135.787 335.138,138.503C336.003,141.219 335.833,144.448 335.777,147.297Z" style="fill:rgb(235,234,233);fill-rule:nonzero;"/>
        <path d="M452.626,421.181L403.236,421.181C403.163,417.402 405.862,413.668 409.332,412.172C410.498,411.669 411.762,411.427 413.029,411.427C415.533,411.427 418.048,412.374 419.84,414.131C419.877,412.52 420.98,411.175 422.511,410.671C422.89,410.547 423.285,410.488 423.682,410.488C424.891,410.488 426.107,411.041 426.85,412.001C428.042,408.155 430.46,404.664 433.938,402.635C435.874,401.506 438.131,400.892 440.367,400.892C442.149,400.892 443.918,401.282 445.5,402.112C448.628,403.754 450.762,406.91 451.834,410.277C452.905,413.645 452.695,417.648 452.626,421.181Z" style="fill:white;fill-rule:nonzero;"/>
        <path d="M149.013,410.747C148.396,415.242 145.179,418.982 141.445,421.159C137.729,423.323 133.535,424.17 129.404,424.997C125.409,425.803 121.34,426.611 117.318,426.187C113.297,425.762 109.262,423.967 106.948,420.436C104.835,417.229 104.411,413.059 104.037,409.089C101.527,381.769 99.015,354.464 96.507,327.143C96.248,324.389 96.007,321.622 95.749,318.868C107.988,315.593 120.926,311.799 133.181,314.127C132.669,319.978 132.179,326.008 132.673,331.784C133.025,335.875 133.871,339.825 135.548,343.473C138.326,349.528 143.355,354.727 143.559,361.559C143.792,369.145 137.869,376.022 138.266,383.591C138.547,388.657 141.588,392.885 144.328,396.928C147.055,400.969 149.708,405.696 149.013,410.747Z" style="fill:white;fill-rule:nonzero;"/>
        <path d="M132.673,331.784C120.674,329.87 108.603,328.326 96.507,327.143C96.248,324.389 96.007,321.622 95.749,318.868C107.988,315.593 120.926,311.799 133.181,314.127C132.669,319.978 132.179,326.008 132.673,331.784Z" style="fill:rgb(235,234,233);fill-rule:nonzero;"/>
        <path d="M135.86,310.263L134.289,318.427L94.371,319.613L88.764,318.534C83.317,317.485 79.757,312.228 80.806,306.781L82.127,299.918L135.86,310.263Z" style="fill:rgb(5,39,68);fill-rule:nonzero;"/>
        <path d="M126.101,306.514L66.794,295.097C54.38,270.033 60.206,239.766 81.038,221.103L140.345,232.52L126.101,306.514Z" style="fill:rgb(5,39,68);fill-rule:nonzero;"/>
        <path d="M143.314,314.108L77.391,301.417C63.592,273.557 70.069,239.914 93.224,219.169L93.225,219.169L159.147,231.859L143.314,314.108Z" style="fill:rgb(251,191,51);fill-rule:nonzero;"/>
        <path d="M169.238,276.452C164.865,299.165 153.258,316.027 143.313,314.112C133.368,312.198 128.85,292.233 133.222,269.519C137.595,246.805 149.202,229.945 159.147,231.859C169.092,233.774 173.61,253.739 169.238,276.452Z" style="fill:rgb(235,234,233);fill-rule:nonzero;"/>
        <path d="M323.95,306.24L302.355,360.871L280.415,416.36C280.415,416.36 241.213,332.959 149.424,310.03C145.285,308.999 142.045,305.726 140.998,301.59C140.421,299.324 139.944,297.076 139.583,294.837C136.454,276.015 140.713,258.616 152.349,242.622C154.856,239.183 159.045,237.86 163.295,237.912C259.769,239.056 324.411,187.815 324.411,187.815L323.95,306.24Z" style="fill:white;fill-rule:nonzero;"/>
        <path d="M434.29,328.157C420.392,400.349 371.998,451.725 326.199,442.909C280.399,434.092 254.538,368.42 268.435,296.228C282.333,224.035 330.727,172.66 376.526,181.476C422.326,190.293 448.187,255.964 434.29,328.157Z" style="fill:rgb(234,234,234);fill-rule:nonzero;"/>
        <path d="M349.779,311.212L346.846,340.815L302.936,342.387L262.36,343.835C262.36,343.835 261.243,318.336 265.73,295.032C270.216,271.728 280.722,248.453 280.722,248.453L317.86,264.862L358.048,282.624L349.779,311.212Z" style="fill:rgb(251,191,51);fill-rule:nonzero;"/>
        <path d="M295.834,300.827C290.182,330.182 302.936,342.387 302.936,342.387L262.36,343.835C262.36,343.835 261.243,318.336 265.73,295.032C270.216,271.728 280.722,248.453 280.722,248.453L317.86,264.862C317.86,264.862 301.486,271.464 295.834,300.827Z" style="fill:rgb(250,162,37);fill-rule:nonzero;"/>
        <path d="M367.522,314.623C364.6,329.801 354.289,340.576 344.491,338.689C334.693,336.803 329.119,322.97 332.041,307.793C334.963,292.616 345.274,281.841 355.072,283.728C364.87,285.614 370.444,299.447 367.522,314.623Z" style="fill:white;fill-rule:nonzero;"/>
        <path d="M354.71,285.606C345.965,283.922 336.637,294.037 333.92,308.155C331.202,322.272 336.107,335.127 344.853,336.811C353.599,338.494 362.925,328.379 365.643,314.262C368.361,300.145 363.456,287.289 354.71,285.606ZM344.13,340.568C333.312,338.485 327.047,323.62 330.163,307.432C333.279,291.242 344.616,279.767 355.433,281.849C366.251,283.932 372.516,298.796 369.4,314.986C366.284,331.174 354.947,342.65 344.13,340.568Z" style="fill:rgb(251,191,51);fill-rule:nonzero;"/>
        <path d="M362.235,313.606C359.903,325.718 352.437,334.464 345.559,333.141C338.681,331.817 334.997,320.924 337.328,308.811C339.66,296.699 347.126,287.952 354.004,289.276C360.882,290.6 364.566,301.492 362.235,313.606Z" style="fill:rgb(0,39,69);fill-rule:nonzero;"/>
        <path d="M278.936,404.03C273.376,393.168 268.265,382.027 265.908,369.981C264.573,363.159 265.326,356.219 264.679,349.338C264.254,344.815 263.233,340.249 263.358,335.701C259.372,333.388 255.35,331.131 251.283,328.951C216.675,310.393 178.458,302.36 139.583,294.837C139.944,297.076 140.421,299.324 140.998,301.59C142.045,305.726 145.285,308.999 149.424,310.03C241.213,332.959 280.415,416.36 280.415,416.36L282.539,410.988C281.334,408.67 280.127,406.354 278.936,404.03Z" style="fill:rgb(235,234,233);fill-rule:nonzero;"/>
        <path d="M431.342,326.909C433.931,312.88 435.24,298.594 434.759,284.356C434.298,270.133 432.149,255.948 427.931,242.447C425.84,235.695 423.149,229.149 419.904,222.935C416.664,216.72 412.784,210.87 408.257,205.647C403.731,200.433 398.56,195.826 392.789,192.263C386.996,188.749 380.649,186.282 374.064,185.069C367.461,183.946 360.694,184.088 354.116,185.382C347.54,186.729 341.189,189.243 335.237,192.529C323.28,199.116 313.119,208.901 304.546,219.787C295.926,230.705 289.068,243.034 283.557,255.899C277.992,268.761 274.044,282.326 271.36,296.112C268.733,309.909 267.363,323.969 267.756,337.979C268.097,351.969 269.887,365.964 273.838,379.302C277.756,392.592 283.559,405.451 292.215,416.006C296.523,421.267 301.486,425.959 307.091,429.652C312.719,433.295 318.95,435.94 325.499,437.348C332.063,438.666 338.873,438.732 345.556,437.619C352.237,436.454 358.749,434.096 364.887,430.935C371.03,427.766 376.804,423.774 382.121,419.206C387.44,414.641 392.37,409.562 396.817,404.069C405.747,393.1 413.008,380.725 418.716,367.691C424.449,354.649 428.538,340.898 431.342,326.909ZM436.334,327.87C433.542,342.218 429.427,356.348 423.605,369.804C417.836,383.261 410.64,396.207 401.484,407.801C392.365,419.353 381.482,429.893 368.237,437.186C361.641,440.816 354.496,443.649 346.969,445.174C339.443,446.649 331.58,446.807 323.933,445.479C316.304,444.068 308.945,441.18 302.339,437.145C295.752,433.065 289.961,427.867 284.964,422.094C279.967,416.31 275.761,409.925 272.274,403.227C268.783,396.527 265.923,389.534 263.708,382.37C259.242,368.043 257.008,353.159 256.527,338.29C256.028,323.407 257.394,308.533 260.09,293.942C263.004,279.393 267.258,265.076 273.246,251.441C279.214,237.813 286.813,224.822 296.278,213.177C300.997,207.347 306.247,201.917 311.976,196.992C317.701,192.066 323.976,187.7 330.764,184.184C337.547,180.678 344.854,178.002 352.484,176.659C360.117,175.365 368.022,175.415 375.63,176.938C383.222,178.544 390.465,181.609 396.906,185.773C403.328,189.984 408.911,195.267 413.688,201.086C423.279,212.775 429.47,226.602 433.65,240.715C437.846,254.879 439.722,269.571 440.084,284.208C440.494,298.864 439.068,313.511 436.334,327.87Z" style="fill:rgb(251,191,51);fill-rule:nonzero;"/>
        <path d="M119.909,294.304C116.941,276.148 120.448,257.369 129.78,241.512C131.031,239.386 127.592,237.705 126.35,239.816C116.712,256.192 113.028,275.852 116.094,294.606C116.488,297.015 120.308,296.742 119.909,294.304Z" style="fill:rgb(5,39,68);fill-rule:nonzero;"/>
        <path d="M106.223,291.669C103.254,273.513 106.761,254.734 116.094,238.877C117.345,236.751 113.906,235.071 112.664,237.181C103.026,253.557 99.341,273.217 102.408,291.971C102.802,294.38 106.621,294.107 106.223,291.669Z" style="fill:rgb(5,39,68);fill-rule:nonzero;"/>
        <path d="M92.536,289.034C89.567,270.878 93.075,252.099 102.407,236.242C103.659,234.117 100.219,232.436 98.977,234.546C89.339,250.922 85.655,270.582 88.721,289.336C89.115,291.745 92.934,291.472 92.536,289.034Z" style="fill:rgb(5,39,68);fill-rule:nonzero;"/>
        <path d="M157.295,322.192C150.045,329.713 135.732,330.14 137.16,337.661C155.774,336.464 164.219,330.487 164.219,330.487L164.679,332.905L170.919,331.001C170.919,331.001 172.333,324.425 169.766,319.733L157.295,322.192Z" style="fill:rgb(118,116,116);fill-rule:nonzero;"/>
        <path d="M157.295,322.192C157.295,322.192 163.988,324.88 169.766,319.733L168.583,310.126L155.75,312.627L157.295,322.192Z" style="fill:rgb(255,218,211);fill-rule:nonzero;"/>
        <path d="M159.7,244.628C221.867,232.256 253.773,215.721 253.773,215.721L228.538,195.547C228.538,195.547 194.209,206.242 146.263,226.516C139.749,229.27 136.141,236.3 137.7,243.199C142.816,265.839 149.757,294.796 155.649,316.196C160.256,318.004 167.589,316.886 171.307,313.497C171.307,313.497 167.49,281.011 159.7,244.628Z" style="fill:rgb(5,39,68);fill-rule:nonzero;"/>
        <path d="M216.678,342.791C211.553,351.894 197.807,355.908 201.082,362.828C218.796,356.987 225.466,349.077 225.466,349.077L226.519,351.302L232.08,347.891C232.08,347.891 231.795,341.17 228.13,337.274L216.678,342.791Z" style="fill:rgb(118,116,116);fill-rule:nonzero;"/>
        <path d="M216.678,342.791C216.678,342.791 223.833,343.709 228.13,337.274L224.568,328.274L212.777,333.923L216.678,342.791Z" style="fill:rgb(255,218,211);fill-rule:nonzero;"/>
        <path d="M201.609,266.817C217.688,259.054 243.696,246.322 257.452,237.115C265.519,231.716 269.115,219.351 268.503,209.686L267.475,193.476C267.475,193.476 225.285,221.412 183.453,252.393C177.774,256.599 175.901,264.252 179.035,270.586C189.331,291.388 202.011,318.833 212.777,338.259C217.68,338.933 224.647,335.197 227.463,331.03C227.463,331.03 218.797,299.64 201.609,266.817Z" style="fill:rgb(5,39,68);fill-rule:nonzero;"/>
        <path d="M186.833,156.812C173.267,148.096 163.589,137.962 150.245,125.948C150.245,125.948 148.771,119.441 155.959,117.275C167.17,129.731 181.769,132.682 191.943,142.099C197.979,136.334 205.196,130.153 209.649,123.666L238.331,113.339C238.331,113.339 225.915,133.354 198.017,156.148C194.816,158.764 190.312,159.046 186.833,156.812Z" style="fill:rgb(252,218,211);fill-rule:nonzero;"/>
        <path d="M157.615,132.963L152.718,129.008C152.718,129.008 156.687,123.318 160.644,120.412L165.623,125.347L157.615,132.963Z" style="fill:white;fill-rule:nonzero;"/>
        <path d="M245.639,108.738C245.639,108.738 203.056,158.324 193.991,159.344C184.927,160.365 156.761,133.123 156.761,133.123L165.237,124.146C165.237,124.146 169.577,128.609 174.339,130.622C180.253,133.122 188.816,138.209 191.943,142.099C191.943,142.099 218.723,111.799 221.356,110.681L222.889,109.942C229.65,106.938 241.83,108.769 245.639,108.738Z" style="fill:rgb(5,39,68);fill-rule:nonzero;"/>
        <path d="M137.08,111.844C136.954,112.493 137.466,113.013 138.051,113.153C139.931,113.604 141.832,113.966 143.745,114.237C143.478,116.498 143.725,118.845 144.521,120.974C145.268,122.973 146.89,125.014 148.985,125.68C151.214,126.39 153.899,125.222 155.596,123.8C157.105,122.535 158.197,120.945 159.261,119.309C159.482,118.97 159.708,118.634 159.955,118.313C160.077,118.154 160.203,117.998 160.337,117.849L160.506,117.668L160.571,117.607C160.733,117.469 160.901,117.347 161.071,117.22L161.113,117.187L161.145,117.173L161.407,117.055L161.636,116.975L161.683,116.96L161.867,116.912C162.111,116.847 162.339,116.756 162.546,116.602C163.11,116.18 163.332,115.416 163.069,114.762C162.864,114.253 162.401,113.86 161.902,113.657C160.973,113.278 159.843,113.427 158.925,113.759C157.661,114.215 156.697,115.106 155.874,116.126C155.796,115.792 155.717,115.459 155.638,115.125C154.467,110.212 153.161,105.313 151.246,100.63C151.027,100.095 150.443,99.811 149.891,99.953C149.37,100.087 148.925,100.635 149.031,101.2L150.118,106.965C150.235,107.588 150.354,108.212 150.464,108.837C148.526,106.632 146.587,104.427 144.648,102.222C144.264,101.784 143.885,101.528 143.359,101.823C142.857,102.103 142.87,102.815 143.076,103.355C143.949,105.646 145.415,107.783 146.848,109.756C144.914,108.772 142.39,107.665 140.507,106.587C140.007,106.3 139.336,106.599 139.064,107.047C138.742,107.575 139.199,108.088 139.608,108.5C140.778,109.679 142.944,110.611 144.266,111.607C142.697,111.358 139.936,111.243 138.39,110.872C137.762,110.722 137.191,111.275 137.08,111.844Z" style="fill:rgb(252,218,211);fill-rule:nonzero;"/>
        <path d="M154.107,103.838L157.198,107.939L160.29,112.041L176.906,97.392C177.442,94.117 176.063,92.287 172.768,91.901L154.107,103.838Z" style="fill:rgb(251,191,51);fill-rule:nonzero;"/>
        <path d="M132.79,114.735L138.365,122.133L143.941,129.531L163.146,111.221C162.944,106.197 160.456,102.896 155.682,101.318L132.79,114.735Z" style="fill:rgb(250,162,37);fill-rule:nonzero;"/>
        <path d="M101.831,130.493L111.047,142.722L120.264,154.951L147.643,127.975C148.276,118.942 144.163,113.486 135.305,111.605L101.831,130.493Z" style="fill:rgb(251,191,51);fill-rule:nonzero;"/>
        <path d="M120.757,135.404C125.847,142.158 125.626,150.909 120.264,154.951C114.901,158.993 106.427,156.794 101.337,150.04C96.247,143.286 96.467,134.535 101.831,130.493C107.193,126.451 115.667,128.65 120.757,135.404Z" style="fill:rgb(5,39,68);fill-rule:nonzero;"/>
        <path d="M116.987,138.245C120.498,142.903 120.684,148.683 117.403,151.156C114.123,153.629 108.617,151.857 105.107,147.199C101.596,142.541 101.41,136.761 104.691,134.288C107.971,131.815 113.477,133.587 116.987,138.245Z" style="fill:white;fill-rule:nonzero;"/>
        <path d="M236.076,106.105L222.889,109.942C222.889,109.942 218.813,159.025 210.828,201.239C233.289,217.349 268.569,210.572 268.569,210.572C267.756,159.698 261.729,111.188 261.729,111.188C257.564,108.48 253.288,106.933 248.902,106.516L236.076,106.105Z" style="fill:rgb(251,191,51);fill-rule:nonzero;"/>
        <path d="M248.92,105.83C248.92,105.83 245.389,202.643 245.653,213.213C245.653,213.213 264.68,213.932 270.494,211.987C270.494,211.987 268.644,125.613 266.463,112.51C264.195,109.313 254.023,106.105 248.92,105.83Z" style="fill:rgb(5,39,68);fill-rule:nonzero;"/>
        <path d="M236.076,106.105C236.076,106.105 227.485,195.964 226.286,209.994C226.286,209.994 212.02,206.47 208.352,199.085C208.352,199.085 219.616,119.248 221.356,110.681C221.356,110.681 227.318,107.261 236.076,106.105Z" style="fill:rgb(5,39,68);fill-rule:nonzero;"/>
        <path d="M244.597,219.805L170.062,219.805C165.032,219.805 160.955,215.727 160.955,210.697L160.955,159.57C160.955,154.54 165.032,150.463 170.062,150.463L244.597,150.463C249.627,150.463 253.704,154.54 253.704,159.57L253.704,210.697C253.704,215.727 249.627,219.805 244.597,219.805Z" style="fill:white;fill-rule:nonzero;"/>
        <g transform="matrix(1,0,0,1,-13.0552,0)">
            <path d="M194.968,163.068L203.642,163.068L203.357,163.64C200.902,163.791 200.33,164.092 199.204,166.351L193.663,177.465C191.711,181.381 188.822,183.429 185.629,183.429C182.949,183.429 183.488,181.742 183.699,181.321C184.044,180.628 185.037,179.785 185.79,179.785C187.928,179.785 185.869,182.285 186.983,182.285C188.128,182.285 188.744,181.23 189.119,180.477L196.162,166.351C197.243,164.183 197.077,163.791 194.682,163.64L194.968,163.068Z" style="fill:rgb(5,76,129);fill-rule:nonzero;"/>
        </g>
        <g transform="matrix(1,0,0,1,-13.0552,0)">
            <path d="M215.298,162.646C220.388,162.646 223.285,166.381 219.966,173.038C216.587,179.815 210.026,183.429 204.966,183.429C200.087,183.429 196.784,180.026 200.268,173.038C203.872,165.809 210.75,162.646 215.298,162.646ZM214.742,163.761C211.158,163.761 206.78,166.863 203.702,173.038C200.698,179.062 201.667,182.375 205.492,182.375C209.106,182.375 213.394,179.273 216.502,173.038C219.656,166.713 218.176,163.761 214.742,163.761Z" style="fill:rgb(5,76,129);fill-rule:nonzero;"/>
        </g>
        <g transform="matrix(1,0,0,1,-13.0552,0)">
            <path d="M226.503,163.068L235.449,163.068L235.163,163.64C232.92,163.731 232.061,163.942 230.86,166.351L224.027,180.056C223.021,182.074 223.73,182.465 225.778,182.465L225.507,183.007L216.562,183.007L216.832,182.465C219.046,182.375 219.919,182.074 220.925,180.056L227.758,166.351C228.884,164.092 228.582,163.791 226.218,163.64L226.503,163.068Z" style="fill:rgb(5,76,129);fill-rule:nonzero;"/>
        </g>
        <path d="M226.111,163.068L231.262,163.068L235.589,177.526L235.65,177.526L240.65,167.496C242.377,164.032 241.654,163.791 239.681,163.64L239.966,163.068L247.045,163.068L246.759,163.64C244.772,163.821 243.763,163.972 242.006,167.496L234.107,183.339L233.565,183.339L228.526,166.743L222.549,178.73C221.138,181.562 221.35,182.345 223.518,182.465L223.248,183.007L216.17,183.007L216.44,182.465C218.94,182.345 219.842,181.501 221.239,178.7L227.922,165.297C227.922,165.297 227.664,164.183 227.121,163.881C226.745,163.671 226.278,163.64 225.826,163.64L226.111,163.068Z" style="fill:rgb(5,76,129);fill-rule:nonzero;"/>
        <g transform="matrix(1,0,0,1,-3.6863,0)">
            <path d="M203.085,188.918L211.578,188.918L211.293,189.49C208.718,189.641 208.237,190.183 207.231,192.201L202.425,201.84C201.464,203.767 199.301,207.984 204.572,207.984C207.283,207.984 209.555,206.629 210.714,205.635C211.811,204.58 212.608,203.225 213.599,201.237L217.548,193.316C218.93,190.545 218.944,189.551 216.624,189.49L216.91,188.918L223.897,188.918L223.612,189.49C221.037,189.701 220.24,190.454 218.813,193.316L214.533,201.9C212.101,206.779 208.234,209.279 203.144,209.279C195.674,209.279 198.512,203.526 199.443,201.659L204.158,192.201C205.315,189.882 204.953,189.641 202.799,189.49L203.085,188.918Z" style="fill:rgb(5,76,129);fill-rule:nonzero;"/>
        </g>
        <path d="M226.758,188.497C228.686,188.497 229.576,189.551 230.449,189.551C231.232,189.551 231.683,189.009 232.029,188.497L232.662,188.497L230.111,194.942L229.358,194.942C230.092,192.382 229.441,189.762 226.398,189.762C224.651,189.762 222.771,190.816 221.915,192.533C221.194,193.978 221.692,195.033 222.567,195.936C223.728,197.051 224.15,197.231 225.447,198.496C226.292,199.34 227.785,200.996 226.358,203.858C225.247,206.086 221.878,209.279 217.3,209.279C214.86,209.279 214.061,208.285 213.157,208.285C212.434,208.285 211.953,208.827 211.728,209.279L211.035,209.279L213.3,202.924L213.963,202.924C213.666,205.876 214.271,208.225 217.464,208.225C219.572,208.225 221.754,206.87 222.775,204.821C223.406,203.556 223.69,202.322 221.549,200.454L219.363,198.557C218.156,197.231 217.657,195.996 218.844,193.617C220.346,190.605 223.686,188.497 226.758,188.497Z" style="fill:rgb(5,76,129);fill-rule:nonzero;"/>
        <path d="M295.334,172.202C284.268,183.93 272.525,191.576 258.258,202.479C258.258,202.479 251.591,202.729 250.787,195.264C265.094,186.54 270.684,172.735 281.814,164.469C277.259,157.475 272.514,149.243 266.958,143.671L266.806,118.306C266.806,118.306 279.476,129.468 296.742,161.087C298.722,164.715 298.171,169.195 295.334,172.202Z" style="fill:rgb(252,218,211);fill-rule:nonzero;"/>
        <path d="M254.181,194.693C254.181,194.693 243.432,193.999 241.235,194.56C239.039,195.121 230.016,200.865 230.401,201.503C230.785,202.141 239.442,198.236 239.442,198.236C239.442,198.236 231.731,204.977 232.476,205.75C233.22,206.522 240.63,200.857 240.63,200.857C240.63,200.857 236.167,206.835 236.701,207.416C237.235,207.996 243.529,202.284 243.529,202.284C243.529,202.284 238.645,208.939 239.63,209.448C240.614,209.956 246.556,203.2 246.556,203.2C246.556,203.2 251.454,208.321 259.808,201.296L254.181,194.693Z" style="fill:rgb(252,218,211);fill-rule:nonzero;"/>
        <path d="M266.511,196.527L261.721,200.611C261.721,200.611 256.859,195.662 254.733,191.238L260.501,187.253L266.511,196.527Z" style="fill:white;fill-rule:nonzero;"/>
        <path d="M266.463,112.51C266.463,112.51 299.808,156.535 299.141,165.633C298.475,174.73 266.511,197.396 266.511,197.396L259.25,187.411C259.25,187.411 264.435,183.968 267.292,179.658C270.838,174.305 277.415,166.826 281.814,164.469C281.814,164.469 268.255,142.732 260.476,138.732C260.476,138.732 265.124,119.99 266.463,112.51Z" style="fill:rgb(5,39,68);fill-rule:nonzero;"/>
        <path d="M242.052,110.548L239.699,116.347L235.6,110.742L236.076,106.105C237.29,108.844 239.295,110.299 242.052,110.548Z" style="fill:rgb(250,162,37);fill-rule:nonzero;"/>
        <path d="M242.052,110.548L244.406,116.347L248.735,111.133L248.902,106.516C247.689,109.255 244.811,110.299 242.052,110.548Z" style="fill:rgb(250,162,37);fill-rule:nonzero;"/>
        <path d="M294.022,113.864C287.827,116.519 282.212,120.351 276.175,123.35C270.139,126.348 263.383,128.535 256.717,127.534C250.053,126.532 243.637,121.615 242.662,114.946L243.297,113.613L242.052,110.548L240.754,113.746L241.642,115.038C241.441,121.208 244.747,127.232 249.7,130.917C254.652,134.602 261.04,136.08 267.2,135.685C273.36,135.289 279.31,133.123 284.703,130.119C289.106,127.667 293.339,124.593 298.296,123.683C299.571,121.102 300.872,118.55 302.147,115.969C299.496,115.339 296.673,114.493 294.022,113.864Z" style="fill:rgb(116,116,116);fill-rule:nonzero;"/>
        <path d="M261.578,61.069C260.139,57.49 256.321,54.854 252.615,55.524C248.655,48.596 237.884,47.411 231.006,50.046C222.491,53.309 217.939,63.225 222.716,71.391C227.557,79.667 237.904,82.539 242.63,90.845C243.661,92.657 244.964,94.7 247.311,94.731C249.471,94.759 250.907,92.871 252.067,91.309C255.354,86.88 257.978,81.965 259.918,76.805C261.764,71.894 263.646,66.216 261.578,61.069Z" style="fill-rule:nonzero;"/>
        <path d="M251.966,62.423C246.518,51.623 226.032,54.593 224.178,62.98C220.364,80.235 222.609,87.441 227.302,91.697C232.733,96.621 236.396,96.134 236.076,106.105C238.017,111.479 246.095,112.463 248.902,106.516C249.165,93.303 254.019,83.439 254.019,83.439C254.019,83.439 254.214,66.876 251.966,62.423Z" style="fill:rgb(252,218,211);fill-rule:nonzero;"/>
        <path d="M249.72,64.705C246.061,69.636 239.062,68.247 239.062,68.247L243.235,64.88C243.235,64.88 232.992,70.508 222.681,68.113C222.681,68.113 221.28,64.256 226.148,58.053C229.261,54.085 237.97,53.361 245.324,54.966C252.678,56.57 255.791,59.889 255.862,65.204C255.933,70.519 256.26,77.164 256.26,77.164L253.318,79.262C248.912,76.113 249.72,64.705 249.72,64.705Z" style="fill-rule:nonzero;"/>
        <path d="M239,78.388C238.977,79.11 238.373,79.676 237.652,79.652C236.931,79.629 236.365,79.026 236.388,78.304C236.411,77.583 237.014,77.017 237.736,77.04C238.457,77.063 239.023,77.667 239,78.388Z" style="fill-rule:nonzero;"/>
        <path d="M237.705,77.989C237.697,78.253 237.476,78.46 237.212,78.452C236.947,78.444 236.74,78.222 236.749,77.958C236.757,77.694 236.978,77.487 237.242,77.495C237.506,77.504 237.714,77.725 237.705,77.989Z" style="fill:white;fill-rule:nonzero;"/>
        <path d="M228.899,78.064C228.876,78.785 228.272,79.351 227.551,79.328C226.83,79.305 226.264,78.701 226.287,77.98C226.31,77.259 226.913,76.693 227.634,76.717C228.356,76.74 228.922,77.343 228.899,78.064Z" style="fill-rule:nonzero;"/>
        <path d="M227.604,77.665C227.595,77.929 227.375,78.137 227.11,78.128C226.846,78.119 226.639,77.899 226.648,77.635C226.656,77.37 226.877,77.163 227.141,77.172C227.405,77.18 227.612,77.401 227.604,77.665Z" style="fill:white;fill-rule:nonzero;"/>
        <path d="M229.937,72.979C228.333,71.784 226.2,71.782 224.611,73.069C224.313,73.31 224.247,73.812 224.456,74.145C224.67,74.485 225.095,74.554 225.393,74.313C226.046,73.784 226.861,73.563 227.649,73.646C228.047,73.689 228.438,73.808 228.799,74.002C229.119,74.175 229.425,74.465 229.797,74.267L230.025,74.062C230.237,73.768 230.241,73.206 229.937,72.979Z" style="fill-rule:nonzero;"/>
        <path d="M235.027,73.142C236.945,72.061 239.386,72.205 241.116,73.599C241.44,73.86 241.482,74.365 241.219,74.683C240.95,75.008 240.46,75.048 240.135,74.786C239.425,74.214 238.506,73.947 237.601,73.978C237.143,73.994 236.687,74.085 236.259,74.249C235.881,74.393 235.507,74.659 235.098,74.437C235.001,74.384 234.917,74.307 234.852,74.218C234.63,73.908 234.664,73.347 235.027,73.142Z" style="fill-rule:nonzero;"/>
        <path d="M231.895,85.593C231.183,85.57 230.446,85.39 229.743,84.991C229.415,84.805 229.299,84.388 229.486,84.061C229.672,83.733 230.088,83.618 230.416,83.804C232.115,84.765 234.071,83.896 234.646,83.158C234.878,82.863 235.307,82.808 235.604,83.04C235.902,83.273 235.954,83.701 235.722,83.999C235.046,84.864 233.536,85.646 231.895,85.593Z" style="fill:rgb(118,116,116);fill-rule:nonzero;"/>
        <path d="M230.408,81.658L230.248,81.529C229.96,80.406 230.351,80.039 230.729,79.93C231.113,79.821 231.565,79.933 232.072,80.269L232.12,80.506L231.883,80.554C231.464,80.276 231.108,80.176 230.824,80.258C230.485,80.355 230.402,80.755 230.579,81.445C230.602,81.536 230.547,81.629 230.455,81.653L230.408,81.658Z" style="fill:rgb(118,116,116);fill-rule:nonzero;"/>
        <path d="M258.474,83.964C256.661,85.99 253.887,86.466 252.28,85.027C250.672,83.588 250.837,80.779 252.65,78.753C254.463,76.727 257.236,76.251 258.844,77.69C260.453,79.129 260.286,81.938 258.474,83.964Z" style="fill:rgb(252,218,211);fill-rule:nonzero;"/>
        <path d="M257.672,78.672C256.941,78.256 255.952,78.242 255.023,78.638C254.561,78.835 254.222,79.082 253.986,79.393C253.674,79.805 253.575,80.331 253.726,80.766C253.861,81.157 254.161,81.417 254.425,81.647C254.617,81.813 254.798,81.97 254.897,82.155C255.049,82.437 254.997,82.824 254.773,83.055C254.55,83.285 254.166,83.35 253.878,83.206C253.709,83.121 253.505,83.19 253.42,83.358C253.336,83.526 253.403,83.732 253.571,83.816C253.756,83.909 253.958,83.957 254.162,83.963C254.567,83.976 254.978,83.824 255.263,83.53C255.693,83.086 255.791,82.372 255.498,81.829C255.339,81.537 255.091,81.322 254.873,81.132C254.653,80.941 254.447,80.761 254.371,80.542C254.295,80.323 254.357,80.034 254.531,79.805C254.6,79.713 254.694,79.631 254.798,79.553C255.136,79.56 255.557,79.678 255.764,79.919C255.997,80.191 256.097,80.577 256.028,80.928C255.993,81.113 256.113,81.292 256.298,81.329L256.354,81.335C256.517,81.341 256.665,81.227 256.699,81.06C256.81,80.502 256.653,79.909 256.282,79.475C256.144,79.314 255.968,79.202 255.783,79.11C256.351,78.975 256.909,79.024 257.334,79.265C257.858,79.565 258.238,80.306 257.944,80.89C257.859,81.059 257.928,81.264 258.096,81.348C258.265,81.433 258.469,81.365 258.553,81.197C258.982,80.345 258.577,79.19 257.672,78.672Z" style="fill:rgb(118,116,116);fill-rule:nonzero;"/>
        <path d="M252.919,411.892L202.864,436.731L187.31,405.385L237.364,380.547L252.919,411.892Z" style="fill:white;fill-rule:nonzero;"/>
        <path d="M187.31,405.385L220.114,408.639L237.364,380.547L187.31,405.385Z" style="fill:rgb(234,234,234);fill-rule:nonzero;"/>
        <path d="M443.62,135.426C436.708,121.496 419.578,116.001 405.795,123.506C393.114,130.411 387.923,146.547 394.174,159.561C397.55,166.588 403.505,171.514 410.344,173.774C416.214,175.713 421.714,178.626 426.197,182.88L427.915,184.511L442.92,177.065L442.658,174.69C442.004,168.744 442.748,162.734 444.805,157.118C447.311,150.279 447.113,142.465 443.62,135.426Z" style="fill:rgb(251,191,51);fill-rule:nonzero;"/>
        <path d="M432.744,182.115L430.585,183.186L415.446,152.679L417.605,151.607L432.744,182.115Z" style="fill:rgb(250,162,37);fill-rule:nonzero;"/>
        <path d="M440.34,178.346L438.18,179.417L423.042,148.91L425.201,147.838L440.34,178.346Z" style="fill:rgb(250,162,37);fill-rule:nonzero;"/>
        <path d="M443.565,193.364L440.591,194.84C440.009,195.128 439.303,194.89 439.015,194.308L437.016,190.281L442.097,187.76L444.096,191.787C444.384,192.369 444.147,193.075 443.565,193.364Z" style="fill:rgb(5,39,68);fill-rule:nonzero;"/>
        <path d="M446.745,187.751L434.199,193.977C433.496,194.326 432.643,194.039 432.295,193.336L427.915,184.511L443.007,177.022L447.386,185.847C447.735,186.55 447.448,187.402 446.745,187.751Z" style="fill:white;fill-rule:nonzero;"/>
        <path d="M115.382,70.807L126.388,96.178L65.642,114.064L115.382,70.807Z" style="fill:rgb(235,234,233);fill-rule:nonzero;"/>
        <path d="M65.642,114.064L88.168,63.542L115.382,70.807L65.642,114.064Z" style="fill:white;fill-rule:nonzero;"/>
        <path d="M65.642,114.064L122.632,72.917L152.822,77.604L65.642,114.064Z" style="fill:white;fill-rule:nonzero;"/>
        <path d="M92.804,364.085L91.657,363.606L94.241,357.427L95.389,357.907L92.804,364.085Z" style="fill:rgb(250,162,37);fill-rule:nonzero;"/>
        <path d="M67.851,353.648L66.704,353.168L69.289,346.989L70.436,347.469L67.851,353.648Z" style="fill:rgb(250,162,37);fill-rule:nonzero;"/>
        <path d="M94.335,358.745C94.106,358.65 93.904,358.485 93.762,358.26C88.167,349.349 80.452,346.122 70.18,348.395C69.508,348.542 68.844,348.119 68.696,347.45C68.548,346.779 68.971,346.116 69.642,345.966C80.908,343.475 89.733,347.165 95.869,356.937C96.234,357.519 96.059,358.286 95.477,358.652C95.121,358.875 94.695,358.896 94.335,358.745Z" style="fill:rgb(251,191,51);fill-rule:nonzero;"/>
        <path d="M94.272,411.885L31.64,385.687L48.9,344.426L111.531,370.624L94.272,411.885Z" style="fill:rgb(251,191,51);fill-rule:nonzero;"/>
        <path d="M102.257,392.796L39.625,366.598L48.9,344.426L111.531,370.624L102.257,392.796Z" style="fill:rgb(251,191,51);fill-rule:nonzero;"/>
        <path d="M100.798,396.283L38.167,370.084L39.625,366.598L102.257,392.796L100.798,396.283Z" style="fill:rgb(250,162,37);fill-rule:nonzero;"/>
        <path d="M48.314,377.264L46.258,376.404L48.761,370.419L50.817,371.28L48.314,377.264Z" style="fill:rgb(250,162,37);fill-rule:nonzero;"/>
        <path d="M88.561,394.099L90.617,394.958L93.12,388.974L91.064,388.115L88.561,394.099Z" style="fill:rgb(250,162,37);fill-rule:nonzero;"/>
    </g>
</svg>
